# xmcd
#
# Track frame offsets: 
#        151
#        34400
#        51880
#        73310
#        95550
#        128106
#        147758
#        177963
#        191741
#        218545
#
# Disc length: 3082 seconds
#
# Revision: 7
# Processed by: cddbd v1.5.2PL0 Copyright (c) Steve Scherf et al.
# Submitted via: ExactAudioCopy v1.0b3
#
DISCID=980c080a
DTITLE=Melvin Taylor - Melvin Taylor and The Slack Band
DYEAR=1995
DGENRE=Blues
TTITLE0=Texas Flood
TTITLE1=Depression Blues
TTITLE2=Grooving in New Orleans
TTITLE3=Talking to Anna Mae
TTITLE4=Tin Pan Alley
TTITLE5=All Your Love
TTITLE6=Don't Throw Your Love on Me So Strong
TTITLE7=T-Bone Shuffle
TTITLE8=Voodoo Child (Slight Return)
TTITLE9=Tequila
EXTD=
EXTT0=
EXTT1=
EXTT2=
EXTT3=
EXTT4=
EXTT5=
EXTT6=
EXTT7=
EXTT8=
EXTT9=
PLAYORDER=
